<?xml version="1.0" standalone="no"?>
<!DOCTYPE svg PUBLIC "-//W3C//DTD SVG 20010904//EN"
 "http://www.w3.org/TR/2001/REC-SVG-20010904/DTD/svg10.dtd">
<svg version="1.0" xmlns="http://www.w3.org/2000/svg"
 viewBox="0 0 2600.000000 2600.000000"
 preserveAspectRatio="xMidYMid meet">
<metadata>
Created by potrace 1.13, written by Peter Selinger 2001-2015
</metadata>
<g transform="translate(0.000000,2600.000000) scale(0.100000,-0.100000)"
fill="#000000" stroke="none">
<path d="M4712 17910 c-167 -44 -308 -159 -380 -311 -22 -46 -45 -108 -51
-137 -8 -38 -11 -1694 -11 -5810 0 -5100 2 -5765 15 -5817 52 -206 209 -367
420 -432 58 -17 337 -18 8610 -18 l8550 0 70 22 c215 68 379 252 415 467 7 42
10 1861 8 5821 l-3 5760 -25 70 c-68 195 -240 349 -438 390 -58 13 -1237 15
-8587 14 -8357 0 -8521 0 -8593 -19z m16808 -6255 l0 -5435 -8210 0 -8210 0 0
5435 0 5435 8210 0 8210 0 0 -5435z"/>
<path d="M9080 15764 c-344 -44 -628 -181 -865 -419 -358 -357 -499 -860 -380
-1351 115 -476 480 -872 943 -1023 167 -55 240 -66 447 -66 148 0 210 4 280
19 560 117 988 529 1120 1077 189 787 -311 1571 -1112 1740 -96 20 -348 33
-433 23z"/>
<path d="M13240 13980 l0 -420 3193 2 3192 3 3 418 2 417 -3195 0 -3195 0 0
-420z"/>
<path d="M7510 12649 c-111 -28 -193 -74 -279 -155 -87 -82 -140 -164 -179
-279 l-27 -80 0 -2045 c0 -2289 -6 -2090 72 -2250 28 -57 57 -95 122 -160 96
-95 171 -138 299 -171 73 -18 129 -19 1742 -19 1626 0 1669 0 1744 20 230 59
407 235 473 470 17 62 18 164 18 2100 l0 2035 -23 80 c-34 117 -83 198 -176
290 -91 90 -169 134 -294 166 -65 16 -111 19 -341 19 l-266 0 -389 -785 c-214
-432 -392 -785 -395 -785 -3 0 -38 182 -77 405 -38 223 -67 405 -63 405 8 0
222 372 222 385 0 6 -39 75 -85 155 l-85 145 -89 -5 c-111 -6 -311 -6 -384 0
l-54 4 -64 -109 c-35 -61 -74 -128 -87 -151 l-24 -41 115 -199 116 -199 -68
-390 c-37 -214 -70 -395 -73 -401 -3 -6 -181 344 -396 777 l-390 789 -270 -1
c-234 0 -280 -3 -345 -20z"/>
<path d="M13247 12073 c-4 -3 -7 -192 -7 -420 l0 -413 3195 0 3195 0 -2 418
-3 417 -3186 3 c-1752 1 -3189 -1 -3192 -5z"/>
<path d="M13240 9330 l0 -420 3193 2 3192 3 3 418 2 417 -3195 0 -3195 0 0
-420z"/>
</g>
</svg>
